<?xml version="1.0" encoding="UTF-8" standalone="no"?>
<!DOCTYPE svg PUBLIC "-//W3C//DTD SVG 1.1//EN" "http://www.w3.org/Graphics/SVG/1.1/DTD/svg11.dtd">
<svg width="100%" height="100%" viewBox="0 0 1000 1000" version="1.1" xmlns="http://www.w3.org/2000/svg" xmlns:xlink="http://www.w3.org/1999/xlink" xml:space="preserve" xmlns:serif="http://www.serif.com/" style="fill-rule:evenodd;clip-rule:evenodd;stroke-linejoin:round;stroke-miterlimit:2;">
    <g transform="matrix(0.853333,0,0,0.93945,81.866667,25.577982)">
        <rect x="-110" y="-40" width="1200" height="1090" style="fill:rgb(0,0,34);"/>
    </g>
    <g transform="matrix(1.567311,0,0,1.567311,-405.224288,3.103977)">
        <g transform="matrix(1.127163,0,0,1,-36.509651,0)">
            <g transform="matrix(141.666667,0,0,141.666667,799.314895,375.651042)">
            </g>
            <text x="287.109px" y="375.651px" style="font-family:'Inter-BoldItalic', 'Inter';font-weight:700;font-style:italic;font-size:141.667px;fill:white;">k<tspan x="366.657px 451.426px 530.973px " y="375.651px 375.651px 375.651px ">eke</tspan>bit</text>
        </g>
    </g>
    <g transform="matrix(1,0,0,1,102.213476,213.997103)">
        <g id="dot" transform="matrix(0,-1.95361,1.823509,0,222.128074,1596.41741)">
            <path d="M704.471,288.317C711.673,288.317 718.137,283.387 718.931,277.45C719.668,271.464 714.451,266.634 707.25,266.634C700.105,266.634 693.584,271.464 692.79,277.45C691.939,283.387 697.269,288.317 704.471,288.317Z" style="fill:rgb(255,0,42);"/>
        </g>
        <g id="dot1" serif:id="dot" transform="matrix(1.632024,-1.632024,1.15252,1.15252,-728.844963,1049.889474)">
            <path d="M704.471,288.317C711.673,288.317 718.137,283.387 718.931,277.45C719.668,271.464 714.451,266.634 707.25,266.634C700.105,266.634 693.584,271.464 692.79,277.45C691.939,283.387 697.269,288.317 704.471,288.317Z" style="fill:rgb(255,0,42);"/>
        </g>
    </g>
</svg>
